<svg width="19" height="21" viewBox="0 0 19 21" fill="none" xmlns="http://www.w3.org/2000/svg">
<path d="M16.5312 19.875H2.46875C2.26155 19.875 2.06284 19.7927 1.91632 19.6462C1.76981 19.4997 1.6875 19.301 1.6875 19.0938V1.90625C1.6875 1.69905 1.76981 1.50034 1.91632 1.35382C2.06284 1.20731 2.26155 1.125 2.46875 1.125H11.8438L17.3125 6.59375V19.0938C17.3125 19.301 17.2302 19.4997 17.0837 19.6462C16.9372 19.7927 16.7385 19.875 16.5312 19.875Z" stroke="white" stroke-width="2" stroke-linecap="round" stroke-linejoin="round"/>
<path d="M11.8438 1.125V6.59375H17.3125" stroke="white" stroke-width="2" stroke-linecap="round" stroke-linejoin="round"/>
<path d="M11.0431 14.3867L12.6056 15.9492" stroke="white" stroke-width="2" stroke-linecap="round" stroke-linejoin="round"/>
<path d="M9.10938 15.1875C10.6195 15.1875 11.8438 13.9633 11.8438 12.4531C11.8438 10.943 10.6195 9.71875 9.10938 9.71875C7.59922 9.71875 6.375 10.943 6.375 12.4531C6.375 13.9633 7.59922 15.1875 9.10938 15.1875Z" stroke="white" stroke-width="2" stroke-linecap="round" stroke-linejoin="round"/>
</svg>
