<svg width="93" height="99" viewBox="0 0 93 99" fill="none" xmlns="http://www.w3.org/2000/svg">
<path d="M46.1972 0H18.1177C16.8431 0 15.8097 1.03337 15.8097 2.30801C15.8097 3.58265 16.8431 4.61603 18.1177 4.61603H30.115C27.5838 6.20122 25.3015 8.14804 23.3418 10.3847H7.65445C6.37981 10.3848 5.34644 11.4183 5.34644 12.693C5.34644 13.9676 6.37981 15.001 7.65445 15.001H20.0029C17.3401 19.5168 15.8096 24.7765 15.8096 30.3875C15.8096 36.9164 17.8798 42.9708 21.3975 47.9296H14.8488C13.5742 47.9296 12.5408 48.9629 12.5408 50.2376C12.5408 51.5122 13.5742 52.5456 14.8488 52.5456H25.4259C26.865 53.8955 28.4352 55.1068 30.115 56.1588H7.89251C6.61787 56.1588 5.5845 57.1922 5.5845 58.4669C5.5845 59.7415 6.61787 60.7749 7.89251 60.7749H46.1972C62.9531 60.7749 76.5847 47.143 76.5847 30.3874C76.5847 13.6317 62.953 0 46.1972 0ZM57.4087 45.534C57.3662 45.5699 57.3241 45.6061 57.2783 45.6391C57.2268 45.6765 57.1741 45.7114 57.1208 45.744C54.0369 47.9439 50.2656 49.2395 46.1972 49.2395C42.1288 49.2395 38.3577 47.9439 35.2737 45.744C35.2202 45.7114 35.1677 45.6765 35.1162 45.6391C35.0705 45.6058 35.0284 45.5696 34.9858 45.534C30.3532 42.0959 27.3451 36.5866 27.3451 30.3875C27.3451 19.9924 35.8021 11.5353 46.1972 11.5353C56.5923 11.5353 65.0494 19.9924 65.0494 30.3875C65.0494 36.5868 62.0414 42.0959 57.4087 45.534Z" fill="#FFB800"/>
<path d="M79.445 30.8898C79.445 25.5763 78.1207 20.556 75.775 16.1199C83.9543 19.6099 89.6764 27.518 89.6764 36.6935C89.6764 40.3278 88.7646 43.9075 87.0316 47.107L90.1025 56.8848C90.3429 57.6492 90.1266 58.4788 89.5426 59.0437C89.1156 59.456 88.5425 59.6785 87.9571 59.6785C87.7395 59.6785 87.5201 59.6477 87.3061 59.5853L77.1812 56.6197C73.8681 58.2928 70.1612 59.1738 66.398 59.1738C65.208 59.1738 64.0386 59.0868 62.8969 58.9193C72.7965 53.2325 79.445 42.7979 79.445 30.8898Z" fill="#FFB800"/>
<path d="M1.18709 94.8962L0.883251 94.5288C0.294417 93.8033 0 93.1533 0 92.5786C0 91.9992 0.485198 91.236 1.4556 90.2892C2.02088 89.7427 2.62149 89.4695 3.25743 89.4695C3.88866 89.4695 4.76956 90.0348 5.90012 91.1654C6.21573 91.5516 6.66796 91.9191 7.25679 92.2677C7.84563 92.621 8.38971 92.7976 8.88904 92.7976C10.99 92.7976 12.0405 91.9379 12.0405 90.2185C12.0405 89.7003 11.7531 89.2646 11.1784 88.9113C10.599 88.5627 9.88064 88.3083 9.0233 88.1482C8.16124 87.9927 7.23324 87.7384 6.23929 87.3851C5.24533 87.0365 4.31969 86.6243 3.46234 86.1485C2.60029 85.6727 1.88191 84.9214 1.30721 83.8944C0.727798 82.8628 0.438095 81.6239 0.438095 80.1777C0.438095 78.1898 1.18002 76.4539 2.66389 74.9701C4.14304 73.4909 6.16156 72.7513 8.71946 72.7513C10.0761 72.7513 11.3127 72.9256 12.4291 73.2742C13.5503 73.6275 14.3252 73.9855 14.7538 74.3483L15.6017 74.9913C16.3036 75.6461 16.6546 76.1996 16.6546 76.6518C16.6546 77.104 16.3837 77.7258 15.842 78.5172C15.0694 79.6478 14.278 80.213 13.4678 80.213C12.992 80.213 12.4032 79.9869 11.7013 79.5347C11.6354 79.4876 11.5058 79.3745 11.3127 79.1955C11.1195 79.0165 10.9429 78.8705 10.7827 78.7575C10.3117 78.4607 9.7087 78.3123 8.97383 78.3123C8.23897 78.3123 7.62658 78.4889 7.13667 78.8422C6.65147 79.1908 6.40887 79.676 6.40887 80.2978C6.40887 80.9197 6.69858 81.4237 7.27799 81.81C7.85269 82.1915 8.56872 82.4506 9.42606 82.5872C10.2881 82.7238 11.2279 82.9335 12.2454 83.2161C13.2629 83.4987 14.2003 83.8426 15.0577 84.2477C15.9197 84.6576 16.6381 85.3642 17.2128 86.3675C17.7875 87.3756 18.0749 88.6145 18.0749 90.0843C18.0749 91.554 17.7828 92.8471 17.1987 93.9635C16.6098 95.0846 15.8396 95.9514 14.8881 96.5638C13.0556 97.7603 11.1007 98.3586 9.0233 98.3586C7.95868 98.3586 6.95295 98.229 6.00611 97.9699C5.05455 97.7108 4.28436 97.3882 3.69552 97.0019C2.49901 96.2764 1.66287 95.5746 1.18709 94.8962ZM33.2696 74.9206L42.4272 93.8505C42.8134 94.6183 43.0066 95.193 43.0066 95.5746C43.0066 96.3895 42.3518 97.1244 41.0422 97.7792C40.2697 98.1654 39.6643 98.3586 39.2262 98.3586C38.7834 98.3586 38.4207 98.2573 38.1381 98.0547C37.8554 97.8522 37.6529 97.6378 37.5304 97.4117C37.4032 97.1856 37.2266 96.8464 37.0005 96.3942L35.241 92.727H25.8432L24.0838 96.3942C23.8577 96.8464 23.681 97.1738 23.5538 97.3764C23.4314 97.5789 23.2288 97.7886 22.9462 98.0053C22.6635 98.2172 22.3008 98.3232 21.858 98.3232C21.4199 98.3232 20.8146 98.1325 20.042 97.7509C18.7325 97.1149 18.0777 96.3895 18.0777 95.5746C18.0777 95.193 18.2708 94.6183 18.6571 93.8505L27.8146 74.8853C28.0596 74.3671 28.4364 73.9502 28.9452 73.6346C29.454 73.319 29.991 73.1612 30.5563 73.1612C31.781 73.1612 32.6855 73.7477 33.2696 74.9206ZM32.7962 87.7101L30.528 83.0607L28.2881 87.7101H32.7962ZM58.7072 91.5045L59.322 91.0664C60.0898 90.6142 60.6315 90.3881 60.9472 90.3881C61.6491 90.3881 62.4075 91.0217 63.2224 92.2889C63.717 93.0803 63.9644 93.7138 63.9644 94.1896C63.9644 94.6607 63.8136 95.0564 63.5121 95.3767C63.2059 95.6923 62.8479 95.975 62.4381 96.2246C62.033 96.4696 61.6443 96.7051 61.2722 96.9312C60.9001 97.1573 60.1369 97.4518 58.9828 97.8145C57.8287 98.1772 56.7146 98.3586 55.6406 98.3586C54.5666 98.3586 53.4807 98.2172 52.3832 97.9346C51.2856 97.652 50.155 97.1762 48.9915 96.5073C47.8279 95.8431 46.7822 95.0305 45.8542 94.0695C44.9262 93.1085 44.163 91.8767 43.5648 90.374C42.9665 88.8666 42.6674 87.232 42.6674 85.4702C42.6674 83.7084 42.9618 82.1091 43.5506 80.6723C44.1395 79.2356 44.8908 78.0485 45.8047 77.1111C46.7186 76.1736 47.7643 75.387 48.942 74.751C51.156 73.531 53.3842 72.9209 55.6265 72.9209C56.6864 72.9209 57.7651 73.0858 58.8627 73.4155C59.9603 73.7406 60.7917 74.0727 61.357 74.4119L62.1696 74.8853C62.5747 75.1349 62.8903 75.3399 63.1164 75.5C63.7053 75.9758 63.9997 76.5128 63.9997 77.1111C63.9997 77.7093 63.7618 78.3358 63.286 78.9906C62.4051 80.2107 61.6137 80.8207 60.9118 80.8207C60.5067 80.8207 59.932 80.5734 59.1877 80.0788C58.2362 79.311 56.969 78.927 55.3862 78.927C53.9165 78.927 52.4703 79.4358 51.0477 80.4533C50.3694 80.9479 49.8041 81.6474 49.3518 82.5519C48.8996 83.4563 48.6735 84.4809 48.6735 85.6256C48.6735 86.7656 48.8996 87.7878 49.3518 88.6923C49.8041 89.5967 50.3788 90.308 51.0759 90.8262C52.4562 91.8249 53.8929 92.3242 55.3862 92.3242C56.0881 92.3242 56.75 92.2323 57.3718 92.0486C57.9936 91.8696 58.4387 91.6882 58.7072 91.5045ZM92.6255 74.108C92.8092 74.4472 92.9176 74.7534 92.9505 75.0266C92.9835 75.2951 93 75.6908 93 76.2137V95.0375C93 96.5968 92.5713 97.5106 91.714 97.7792C91.2806 97.9158 90.7365 97.9841 90.0817 97.9841C89.427 97.9841 88.9064 97.9275 88.5201 97.8145C88.1386 97.7014 87.8465 97.5672 87.644 97.4117C87.4367 97.2516 87.2765 97.0254 87.1635 96.7334C87.0504 96.3471 86.9939 95.7583 86.9939 94.9669V83.6047C86.4286 84.3066 85.6042 85.4207 84.5208 86.947C83.4373 88.4732 82.7472 89.4271 82.4504 89.8087C82.1584 90.195 81.9558 90.4611 81.8428 90.6072C81.7297 90.7532 81.4518 90.9581 81.009 91.2219C80.5709 91.481 80.0975 91.6105 79.5887 91.6105C79.08 91.6105 78.616 91.4904 78.1967 91.2502C77.7775 91.0146 77.4783 90.7838 77.2993 90.5577L77.0238 90.1832C76.5715 89.6179 75.6789 88.4143 74.3457 86.5725C73.0126 84.7306 72.2895 83.7413 72.1765 83.6047V95.0375C72.1765 95.5557 72.16 95.9443 72.127 96.2034C72.0893 96.4625 71.981 96.7522 71.802 97.0725C71.4628 97.6802 70.5819 97.9841 69.1593 97.9841C67.7791 97.9841 66.9194 97.6802 66.5802 97.0725C66.3965 96.7522 66.2881 96.4578 66.2551 96.1893C66.2222 95.9161 66.2057 95.5086 66.2057 94.9669V76.143C66.2057 75.6249 66.2222 75.2339 66.2551 74.9701C66.2881 74.711 66.3965 74.4119 66.5802 74.0727C66.9194 73.4839 67.8003 73.1894 69.2229 73.1894C69.8353 73.1894 70.3605 73.2648 70.7986 73.4155C71.2414 73.5616 71.5311 73.7123 71.6677 73.8678L71.8726 74.0727L79.5675 84.1841C83.4114 79.0966 85.9787 75.7379 87.2695 74.108C87.651 73.4956 88.5602 73.1894 89.9969 73.1894C91.4337 73.1894 92.3099 73.4956 92.6255 74.108Z" fill="#FFB800"/>
<path d="M38.7615 30.3874C38.7615 32.3053 39.5234 34.1447 40.8795 35.5008C42.2357 36.857 44.0751 37.6189 45.993 37.6189C47.9109 37.6189 49.7503 36.857 51.1064 35.5008C52.4626 34.1447 53.2245 32.3053 53.2245 30.3874C53.2245 28.4695 52.4626 26.6301 51.1064 25.2739C49.7503 23.9178 47.9109 23.1559 45.993 23.1559C44.0751 23.1559 42.2357 23.9178 40.8795 25.2739C39.5234 26.6301 38.7615 28.4695 38.7615 30.3874Z" fill="#FFB800"/>
</svg>
