<svg width="14" height="9" viewBox="0 0 14 9" fill="none" xmlns="http://www.w3.org/2000/svg">
<path d="M13.3589 1.31092C13.3138 1.20348 13.2378 1.11181 13.1406 1.04746C13.0435 0.983121 12.9294 0.948979 12.8129 0.949344H1.00639C0.889846 0.948979 0.775801 0.983121 0.678628 1.04746C0.581455 1.11181 0.505502 1.20348 0.460341 1.31092C0.417811 1.41996 0.407021 1.53881 0.429221 1.65372C0.451421 1.76864 0.505702 1.87492 0.585785 1.96027L6.48903 7.86351C6.60186 7.97262 6.75268 8.03361 6.90963 8.03361C7.06659 8.03361 7.2174 7.97262 7.33024 7.86351L13.2335 1.96027C13.3136 1.87492 13.3678 1.76864 13.39 1.65372C13.4122 1.53881 13.4015 1.41996 13.3589 1.31092Z" fill="black" fill-opacity="0.7"/>
</svg>
