<svg width="30" height="33" viewBox="0 0 30 33" fill="none" xmlns="http://www.w3.org/2000/svg">
<path d="M26.8182 4.68164H3.18182C2.52912 4.68164 2 5.21076 2 5.86346V29.4998C2 30.1525 2.52912 30.6816 3.18182 30.6816H26.8182C27.4709 30.6816 28 30.1525 28 29.4998V5.86346C28 5.21076 27.4709 4.68164 26.8182 4.68164Z" stroke="white" stroke-width="3" stroke-linecap="round" stroke-linejoin="round"/>
<path d="M22.0909 2.31812V7.04539" stroke="white" stroke-width="3" stroke-linecap="round" stroke-linejoin="round"/>
<path d="M7.90912 2.31812V7.04539" stroke="white" stroke-width="3" stroke-linecap="round" stroke-linejoin="round"/>
<path d="M2 11.7727H28" stroke="white" stroke-width="3" stroke-linecap="round" stroke-linejoin="round"/>
<path d="M9.68182 17.6816H13.8182L11.4546 20.6362C11.8435 20.6355 12.2267 20.7309 12.57 20.9138C12.9133 21.0967 13.2062 21.3615 13.4226 21.6847C13.639 22.008 13.7723 22.3796 13.8107 22.7667C13.8491 23.1538 13.7913 23.5444 13.6425 23.9038C13.4938 24.2632 13.2586 24.5804 12.9579 24.8271C12.6571 25.0738 12.3002 25.2426 11.9186 25.3183C11.5371 25.394 11.1427 25.3743 10.7706 25.2611C10.3984 25.1479 10.06 24.9445 9.78523 24.6691" stroke="white" stroke-width="2" stroke-linecap="round" stroke-linejoin="round"/>
<path d="M17.3636 19.4544L19.7273 17.6816V25.3635" stroke="white" stroke-width="2" stroke-linecap="round" stroke-linejoin="round"/>
</svg>
