<svg width="13" height="7" viewBox="0 0 13 7" fill="none" xmlns="http://www.w3.org/2000/svg">
<path d="M7.3202 6.29203L12.6603 1.70203C12.768 1.60945 12.8534 1.49954 12.9117 1.37857C12.97 1.25761 13 1.12796 13 0.997028C13 0.866098 12.97 0.736449 12.9117 0.615485C12.8534 0.494521 12.768 0.38461 12.6603 0.292028C12.5525 0.199447 12.4247 0.126007 12.2839 0.075902C12.1432 0.0257969 11.9924 7.62939e-06 11.8401 7.62939e-06C11.6877 7.62939e-06 11.5369 0.0257969 11.3962 0.075902C11.2554 0.126007 11.1276 0.199447 11.0199 0.292028L6.49418 4.17203L1.98015 0.292028C1.87244 0.199447 1.74457 0.126007 1.60384 0.075902C1.4631 0.0257969 1.31227 7.62939e-06 1.15994 7.62939e-06C1.00762 7.62939e-06 0.856783 0.0257969 0.716052 0.075902C0.575321 0.126007 0.447449 0.199447 0.339738 0.292028C0.232027 0.38461 0.146588 0.494521 0.088295 0.615485C0.0300026 0.736449 0 0.866098 0 0.997028C0 1.12796 0.0300026 1.25761 0.088295 1.37857C0.146588 1.49954 0.232027 1.60945 0.339738 1.70203L5.67979 6.29203C5.78743 6.38473 5.91527 6.45828 6.05601 6.50846C6.19676 6.55864 6.34763 6.58447 6.5 6.58447C6.65237 6.58447 6.80324 6.55864 6.94399 6.50846C7.08473 6.45828 7.21257 6.38473 7.3202 6.29203Z" fill="#FFB800"/>
</svg>
