<svg width="20" height="24" viewBox="0 0 20 24" fill="none" xmlns="http://www.w3.org/2000/svg">
<path d="M9.9999 16.2413C11.9881 16.2413 13.5999 14.6401 13.5999 12.6649C13.5999 10.6897 11.9881 9.0885 9.9999 9.0885C8.01168 9.0885 6.3999 10.6897 6.3999 12.6649C6.3999 14.6401 8.01168 16.2413 9.9999 16.2413Z" stroke="#BBBBBB" stroke-width="2" stroke-linecap="round" stroke-linejoin="round"/>
<path d="M4.6001 18.9236C5.22884 18.0908 6.04413 17.4148 6.98141 16.9493C7.91868 16.4837 8.95219 16.2413 10.0001 16.2413C11.048 16.2413 12.0815 16.4837 13.0188 16.9493C13.9561 17.4148 14.7714 18.0908 15.4001 18.9236" stroke="#BBBBBB" stroke-width="2" stroke-linecap="round" stroke-linejoin="round"/>
<path d="M19 21.6059V1.93572C19 1.44193 18.5971 1.04163 18.1 1.04163L1.9 1.04163C1.40294 1.04163 1 1.44193 1 1.93572V21.6059C1 22.0997 1.40294 22.5 1.9 22.5H18.1C18.5971 22.5 19 22.0997 19 21.6059Z" stroke="#BBBBBB" stroke-width="2" stroke-linecap="round" stroke-linejoin="round"/>
<path d="M6.3999 4.61804H13.5999" stroke="#BBBBBB" stroke-width="2" stroke-linecap="round" stroke-linejoin="round"/>
</svg>
