<svg width="37" height="33" viewBox="0 0 37 33" fill="none" xmlns="http://www.w3.org/2000/svg">
<path d="M36.6059 15.4536C35.1203 12.3237 33.3523 9.77115 31.3021 7.79584L29.1518 9.94611C30.9052 11.6218 32.4326 13.8139 33.7533 16.544C30.2371 23.8214 25.246 27.2784 18.425 27.2784C16.3775 27.2784 14.4917 26.9632 12.7674 26.3326L10.4375 28.6625C12.8324 29.7683 15.4948 30.3213 18.425 30.3213C26.5477 30.3213 32.608 26.0909 36.6059 17.6301C36.7666 17.2898 36.85 16.9182 36.85 16.5419C36.85 16.1656 36.7666 15.7939 36.6059 15.4536ZM33.9193 1.90288L32.1177 0.099158C32.0863 0.0677233 32.049 0.0427861 32.008 0.0257719C31.967 0.00875758 31.923 0 31.8785 0C31.8341 0 31.7901 0.00875758 31.7491 0.0257719C31.708 0.0427861 31.6707 0.0677233 31.6393 0.099158L27.0172 4.71919C24.4688 3.41754 21.6047 2.76671 18.425 2.76671C10.3023 2.76671 4.24199 6.9971 0.244041 15.4579C0.0833426 15.7981 0 16.1698 0 16.5461C0 16.9224 0.0833426 17.2941 0.244041 17.6343C1.84125 20.9984 3.76415 23.6948 6.01275 25.7236L1.54063 30.1945C1.47727 30.2579 1.44168 30.3438 1.44168 30.4335C1.44168 30.5231 1.47727 30.6091 1.54063 30.6725L3.34477 32.4766C3.40817 32.54 3.49413 32.5756 3.58376 32.5756C3.67339 32.5756 3.75935 32.54 3.82275 32.4766L33.9193 2.38128C33.9508 2.34988 33.9757 2.3126 33.9927 2.27155C34.0097 2.23051 34.0185 2.18651 34.0185 2.14208C34.0185 2.09765 34.0097 2.05366 33.9927 2.01261C33.9757 1.97157 33.9508 1.93428 33.9193 1.90288ZM3.0967 16.544C6.61709 9.26654 11.6082 5.80954 18.425 5.80954C20.7299 5.80954 22.8257 6.20511 24.727 7.00935L21.756 9.98034C20.349 9.22962 18.738 8.951 17.1605 9.18559C15.5831 9.42018 14.1228 10.1556 12.9952 11.2832C11.8675 12.4109 11.1321 13.8712 10.8975 15.4486C10.6629 17.026 10.9416 18.6371 11.6923 20.0441L8.16682 23.5696C6.2156 21.8474 4.53359 19.5141 3.0967 16.544ZM13.5226 16.544C13.5234 15.7988 13.6999 15.0642 14.0378 14.4C14.3758 13.7359 14.8657 13.1608 15.4676 12.7215C16.0696 12.2822 16.7667 11.9911 17.5023 11.8718C18.238 11.7526 18.9913 11.8085 19.7013 12.0351L13.747 17.9893C13.5978 17.5221 13.5221 17.0345 13.5226 16.544Z" fill="black" fill-opacity="0.87"/>
<path d="M18.256 21.2772C18.1097 21.2772 17.9656 21.2705 17.8228 21.2574L15.5905 23.4896C16.9331 24.0038 18.3959 24.1181 19.8021 23.8186C21.2083 23.5192 22.4976 22.8188 23.5142 21.8022C24.5308 20.7856 25.2312 19.4963 25.5306 18.0901C25.8301 16.6839 25.7158 15.2211 25.2016 13.8785L22.9694 16.1108C22.9825 16.2536 22.9893 16.3977 22.9893 16.5439C22.9896 17.1656 22.8674 17.7813 22.6296 18.3557C22.3919 18.9301 22.0432 19.452 21.6036 19.8916C21.1641 20.3312 20.6421 20.6799 20.0677 20.9176C19.4933 21.1554 18.8776 21.2776 18.256 21.2772Z" fill="black" fill-opacity="0.87"/>
</svg>
