<svg width="34" height="33" viewBox="0 0 34 33" fill="none" xmlns="http://www.w3.org/2000/svg">
<path d="M31.8531 15.8439V30.3606C31.8531 31.0606 31.575 31.732 31.08 32.2269C30.585 32.7219 29.9137 33 29.2136 33H2.81958C2.11957 33 1.44822 32.7219 0.95324 32.2269C0.458255 31.732 0.180176 31.0606 0.180176 30.3606V3.96653C0.180176 3.26652 0.458255 2.59518 0.95324 2.10019C1.44822 1.60521 2.11957 1.32713 2.81958 1.32713H17.3363C17.6863 1.32713 18.022 1.46617 18.2695 1.71366C18.517 1.96115 18.656 2.29682 18.656 2.64683C18.656 2.99684 18.517 3.33251 18.2695 3.58C18.022 3.82749 17.6863 3.96653 17.3363 3.96653H2.81958V30.3606H29.2136V15.8439C29.2136 15.4939 29.3527 15.1582 29.6002 14.9107C29.8477 14.6632 30.1833 14.5242 30.5333 14.5242C30.8834 14.5242 31.219 14.6632 31.4665 14.9107C31.714 15.1582 31.8531 15.4939 31.8531 15.8439ZM32.7933 7.54623L16.9569 23.3827C16.7055 23.6278 16.3677 23.7641 16.0166 23.7621H10.7378C10.3878 23.7621 10.0521 23.623 9.80463 23.3755C9.55714 23.1281 9.4181 22.7924 9.4181 22.4424V17.1636C9.41612 16.8125 9.55241 16.4747 9.79751 16.2233L25.6339 0.386838C25.8842 0.139022 26.2221 0 26.5742 0C26.9264 0 27.2643 0.139022 27.5145 0.386838L32.7933 5.66565C33.0412 5.91586 33.1802 6.25378 33.1802 6.60594C33.1802 6.9581 33.0412 7.29602 32.7933 7.54623ZM29.989 6.60594L26.5742 3.19121L24.4792 5.28624L27.8939 8.70097L29.989 6.60594Z" fill="#036E85"/>
</svg>
