<svg width="33" height="33" viewBox="0 0 33 33" fill="none" xmlns="http://www.w3.org/2000/svg">
<path d="M31.6729 15.8439V30.3606C31.6729 31.0606 31.3948 31.732 30.8998 32.2269C30.4048 32.7219 29.7335 33 29.0335 33H2.63941C1.93939 33 1.26805 32.7219 0.773064 32.2269C0.278079 31.732 0 31.0606 0 30.3606V3.96653C0 3.26652 0.278079 2.59518 0.773064 2.10019C1.26805 1.60521 1.93939 1.32713 2.63941 1.32713H17.1561C17.5061 1.32713 17.8418 1.46617 18.0893 1.71366C18.3368 1.96115 18.4758 2.29682 18.4758 2.64683C18.4758 2.99684 18.3368 3.33251 18.0893 3.58C17.8418 3.82749 17.5061 3.96653 17.1561 3.96653H2.63941V30.3606H29.0335V15.8439C29.0335 15.4939 29.1725 15.1582 29.42 14.9107C29.6675 14.6632 30.0032 14.5242 30.3532 14.5242C30.7032 14.5242 31.0389 14.6632 31.2863 14.9107C31.5338 15.1582 31.6729 15.4939 31.6729 15.8439ZM32.6132 7.54623L16.7767 23.3827C16.5253 23.6278 16.1875 23.7641 15.8364 23.7621H10.5576C10.2076 23.7621 9.87195 23.623 9.62445 23.3755C9.37696 23.1281 9.23792 22.7924 9.23792 22.4424V17.1636C9.23594 16.8125 9.37224 16.4747 9.61734 16.2233L25.4538 0.386838C25.704 0.139022 26.0419 0 26.3941 0C26.7462 0 27.0841 0.139022 27.3344 0.386838L32.6132 5.66565C32.861 5.91586 33 6.25378 33 6.60594C33 6.9581 32.861 7.29602 32.6132 7.54623ZM29.8088 6.60594L26.3941 3.19121L24.299 5.28624L27.7138 8.70097L29.8088 6.60594Z" fill="black"/>
</svg>
