<svg width="28" height="33" viewBox="0 0 28 33" fill="none" xmlns="http://www.w3.org/2000/svg">
<path d="M23.2667 22.6538V23.0842L23.5792 23.38L26.7333 26.3662V26.5769H1V26.3662L4.15417 23.38L4.46667 23.0842V22.6538V14.4487C4.46667 9.78324 7.04042 6.0503 11.4855 5.05319L12.2667 4.87797V4.07744V2.96154C12.2667 2.20263 12.928 1.5 13.8667 1.5C14.8053 1.5 15.4667 2.20263 15.4667 2.96154V4.07744V4.87736L16.2471 5.05302C20.6762 6.05003 23.2667 9.80049 23.2667 14.4487V22.6538ZM16.0788 30.2179C15.6832 30.9596 14.8616 31.5 13.8667 31.5C12.8612 31.5 12.0433 30.9605 11.6512 30.2179H16.0788Z" stroke="white" stroke-width="2"/>
</svg>
