<svg width="37" height="32" viewBox="0 0 37 32" fill="none" xmlns="http://www.w3.org/2000/svg">
<g id="person_24px">
<path id="icon/social/person_24px" fill-rule="evenodd" clip-rule="evenodd" d="M18.4228 5.33325C15.03 5.33325 12.2819 7.71988 12.2819 10.6665C12.2819 13.6131 15.03 15.9997 18.4228 15.9997C21.8157 15.9997 24.5638 13.6131 24.5638 10.6665C24.5638 7.71988 21.8157 5.33325 18.4228 5.33325ZM21.4933 10.6665C21.4933 9.19985 20.1116 7.99987 18.4228 7.99987C16.7341 7.99987 15.3524 9.19985 15.3524 10.6665C15.3524 12.1331 16.7341 13.3331 18.4228 13.3331C20.1116 13.3331 21.4933 12.1331 21.4933 10.6665ZM27.6343 23.9996C27.3272 23.0529 22.568 21.333 18.4228 21.333C14.293 21.333 9.56451 23.0396 9.21141 23.9996H27.6343ZM6.14093 23.9996C6.14093 20.453 14.3237 18.6663 18.4228 18.6663C22.5219 18.6663 30.7047 20.453 30.7047 23.9996V26.6662H6.14093V23.9996Z" fill="black" fill-opacity="0.87"/>
</g>
</svg>
