<svg width="20" height="21" viewBox="0 0 20 21" fill="none" xmlns="http://www.w3.org/2000/svg">
<path d="M18.25 9.6402H10.75V1.78547C10.75 1.57715 10.671 1.37736 10.5303 1.23006C10.3897 1.08276 10.1989 1 10 1C9.80109 1 9.61032 1.08276 9.46967 1.23006C9.32902 1.37736 9.25 1.57715 9.25 1.78547V9.6402H1.75C1.55109 9.6402 1.36032 9.72296 1.21967 9.87026C1.07902 10.0176 1 10.2174 1 10.4257C1 10.634 1.07902 10.8338 1.21967 10.9811C1.36032 11.1284 1.55109 11.2111 1.75 11.2111H9.25V19.0659C9.25 19.2742 9.32902 19.474 9.46967 19.6213C9.61032 19.7686 9.80109 19.8514 10 19.8514C10.1989 19.8514 10.3897 19.7686 10.5303 19.6213C10.671 19.474 10.75 19.2742 10.75 19.0659V11.2111H18.25C18.4489 11.2111 18.6397 11.1284 18.7803 10.9811C18.921 10.8338 19 10.634 19 10.4257C19 10.2174 18.921 10.0176 18.7803 9.87026C18.6397 9.72296 18.4489 9.6402 18.25 9.6402Z" stroke="#036E85" stroke-width="1.5"/>
</svg>
