<svg width="47" height="47" viewBox="0 0 47 47" fill="none" xmlns="http://www.w3.org/2000/svg">
<path d="M23.5 0.583252C10.85 0.583252 0.583374 10.8499 0.583374 23.4999C0.583374 36.1499 10.85 46.4166 23.5 46.4166C36.15 46.4166 46.4167 36.1499 46.4167 23.4999C46.4167 10.8499 36.15 0.583252 23.5 0.583252ZM23.5 7.45825C27.3042 7.45825 30.375 10.5291 30.375 14.3333C30.375 18.1374 27.3042 21.2083 23.5 21.2083C19.6959 21.2083 16.625 18.1374 16.625 14.3333C16.625 10.5291 19.6959 7.45825 23.5 7.45825ZM23.5 39.9999C17.7709 39.9999 12.7063 37.0666 9.75004 32.6208C9.81879 28.0603 18.9167 25.5624 23.5 25.5624C28.0605 25.5624 37.1813 28.0603 37.25 32.6208C34.2938 37.0666 29.2292 39.9999 23.5 39.9999Z" fill="white"/>
</svg>
