<svg width="33" height="34" viewBox="0 0 33 34" fill="none" xmlns="http://www.w3.org/2000/svg">
<g clip-path="url(#clip0_484_8583)">
<path d="M2.383 0H24.3906C25.047 0 25.6431 0.268196 26.0744 0.700234C26.5058 1.13225 26.7736 1.7292 26.7736 2.38667V18.3972C26.128 17.8228 25.3674 17.3754 24.5307 17.094V2.38667C24.5307 2.34925 24.5146 2.31434 24.4887 2.2884C24.4628 2.26244 24.428 2.2463 24.3906 2.2463H2.383C2.34563 2.2463 2.3108 2.26244 2.28488 2.2884C2.25898 2.31434 2.24286 2.34923 2.24286 2.38667V29.9035C2.24286 29.9409 2.25898 29.9758 2.28488 30.0017C2.3108 30.0277 2.34561 30.0438 2.383 30.0438H24.3906C24.4279 30.0438 24.4628 30.0277 24.4887 30.0017C24.5146 29.9758 24.5307 29.9409 24.5307 29.9035V29.4284C24.6715 29.381 24.8107 29.3288 24.9482 29.2718L26.5611 30.8872C26.4417 31.1504 26.2759 31.3881 26.0744 31.5899C25.6431 32.0219 25.047 32.2901 24.3906 32.2901H2.383C1.72652 32.2901 1.13051 32.0219 0.699156 31.5899C0.267804 31.1579 0 30.5609 0 29.9035V2.38667C0 1.72918 0.267783 1.13225 0.699156 0.700234C1.13051 0.268217 1.72654 0 2.383 0V0Z" fill="#FFB800"/>
<path d="M19.6244 7.37061H4.59058V9.79235H19.6244V7.37061Z" fill="#FFB800"/>
<path d="M19.6244 14.3198H4.59058V16.7416H19.6244V14.3198Z" fill="#FFB800"/>
<path fill-rule="evenodd" clip-rule="evenodd" d="M22.4633 17.9614C25.3857 17.9614 27.7549 20.3343 27.7549 23.2612C27.7549 24.221 27.5001 25.1213 27.0546 25.8977C27.0714 25.8684 27.088 25.839 27.1043 25.8093L33 31.7142L31.0437 33.6735L25.1859 27.8066L25.2035 27.7959C24.4042 28.2814 23.4663 28.561 22.4632 28.561C19.5408 28.561 17.1716 26.1882 17.1716 23.2612C17.1716 20.3342 19.5408 17.9614 22.4632 17.9614L22.4633 17.9614ZM27.0526 25.9012C27.0321 25.9369 27.0112 25.9724 26.9898 26.0076C27.0112 25.9724 27.0321 25.9369 27.0526 25.9012ZM26.9873 26.0117C26.9437 26.0836 26.8984 26.1544 26.8515 26.2239C26.8984 26.1544 26.9437 26.0836 26.9873 26.0117ZM26.7781 26.3299C26.7539 26.364 26.7292 26.3978 26.7043 26.4313C26.7292 26.3978 26.7539 26.364 26.7781 26.3299ZM26.7033 26.4326C26.6786 26.4656 26.6536 26.4983 26.6282 26.5306C26.6536 26.4982 26.6786 26.4656 26.7033 26.4326ZM26.625 26.5349C26.5998 26.5669 26.5743 26.5986 26.5484 26.63C26.5743 26.5986 26.5998 26.5669 26.625 26.5349ZM26.5451 26.634C26.5195 26.6651 26.4936 26.6958 26.4673 26.7263C26.4935 26.6958 26.5195 26.6651 26.5451 26.634ZM26.4619 26.7325C26.4358 26.7626 26.4094 26.7925 26.3826 26.822C26.4094 26.7925 26.4358 26.7626 26.4619 26.7325ZM26.3779 26.8272C26.3509 26.8569 26.3236 26.8863 26.296 26.9153C26.3237 26.8863 26.3509 26.8569 26.3779 26.8272ZM26.2913 26.9203C26.2638 26.949 26.2361 26.9776 26.208 27.0057C26.2361 26.9776 26.2638 26.949 26.2913 26.9203ZM26.2013 27.0124C26.1729 27.0408 26.1443 27.0688 26.1153 27.0965C26.1443 27.0688 26.1729 27.0407 26.2013 27.0124ZM26.1126 27.099C26.083 27.1273 26.0532 27.1551 26.023 27.1826C26.0532 27.1551 26.0831 27.1272 26.1126 27.099ZM26.0185 27.1867C25.9888 27.2137 25.9589 27.2403 25.9286 27.2666C25.9588 27.2404 25.9888 27.2137 26.0185 27.1867ZM25.9243 27.2703C25.8932 27.2972 25.8618 27.3239 25.8301 27.3501C25.8618 27.3239 25.8932 27.2972 25.9243 27.2703ZM25.8285 27.3514C25.797 27.3774 25.7652 27.403 25.7332 27.4283C25.7652 27.403 25.797 27.3774 25.8285 27.3514ZM25.7284 27.432C25.6966 27.4571 25.6645 27.4817 25.6321 27.506C25.6645 27.4817 25.6966 27.4571 25.7284 27.432ZM25.6274 27.5096C25.5949 27.5339 25.5622 27.5577 25.5292 27.5813C25.5622 27.5577 25.5949 27.5339 25.6274 27.5096ZM25.5243 27.5848C25.4914 27.6082 25.4583 27.6312 25.4249 27.6538C25.4583 27.6312 25.4914 27.6082 25.5243 27.5848ZM25.4193 27.6576C25.3856 27.6804 25.3517 27.7027 25.3175 27.7247C25.3518 27.7027 25.3856 27.6804 25.4193 27.6576ZM25.3132 27.7275C25.2792 27.7493 25.2449 27.7707 25.2103 27.7918C25.2449 27.7707 25.2792 27.7493 25.3132 27.7275ZM26.8506 26.2253C26.827 26.2602 26.803 26.2949 26.7786 26.3292L26.8506 26.2253ZM22.5353 20.1213C24.2094 20.1213 25.5666 21.4805 25.5666 23.1573C25.5666 24.834 24.2094 26.1933 22.5353 26.1933C20.8611 26.1933 19.5039 24.834 19.5039 23.1573C19.5039 21.4805 20.8611 20.1213 22.5353 20.1213Z" fill="#FFB800"/>
</g>
<defs>
<clipPath id="clip0_484_8583">
<rect width="33" height="33.6735" fill="white"/>
</clipPath>
</defs>
</svg>
