<svg width="33" height="33" viewBox="0 0 33 33" fill="none" xmlns="http://www.w3.org/2000/svg">
<path d="M30.25 0H2.75C2.02065 0 1.32118 0.289731 0.805456 0.805456C0.289731 1.32118 0 2.02065 0 2.75V30.25C0 30.9793 0.289731 31.6788 0.805456 32.1945C1.32118 32.7103 2.02065 33 2.75 33H30.25C30.9793 33 31.6788 32.7103 32.1945 32.1945C32.7103 31.6788 33 30.9793 33 30.25V2.75C33 2.02065 32.7103 1.32118 32.1945 0.805456C31.6788 0.289731 30.9793 0 30.25 0ZM22.9797 21.0203C23.2379 21.281 23.3827 21.6331 23.3827 22C23.3827 22.3669 23.2379 22.719 22.9797 22.9797C22.7169 23.2338 22.3656 23.3759 22 23.3759C21.6344 23.3759 21.2831 23.2338 21.0203 22.9797L16.5 18.4422L11.9797 22.9797C11.7169 23.2338 11.3656 23.3759 11 23.3759C10.6344 23.3759 10.2831 23.2338 10.0203 22.9797C9.76211 22.719 9.61726 22.3669 9.61726 22C9.61726 21.6331 9.76211 21.281 10.0203 21.0203L14.5578 16.5L10.0203 11.9797C9.80105 11.7125 9.689 11.3734 9.70595 11.0282C9.72291 10.683 9.86765 10.3564 10.112 10.112C10.3564 9.86765 10.683 9.72291 11.0282 9.70595C11.3734 9.689 11.7125 9.80105 11.9797 10.0203L16.5 14.5578L21.0203 10.0203C21.2875 9.80105 21.6266 9.689 21.9718 9.70595C22.317 9.72291 22.6436 9.86765 22.888 10.112C23.1323 10.3564 23.2771 10.683 23.294 11.0282C23.311 11.3734 23.1989 11.7125 22.9797 11.9797L18.4422 16.5L22.9797 21.0203Z" fill="#FF281B"/>
</svg>
